<?xml version="1.0" encoding="UTF-8" standalone="no"?>
<!-- Created with Inkscape (http://www.inkscape.org/) -->

<svg
   xmlns:dc="http://purl.org/dc/elements/1.1/"
   xmlns:cc="http://creativecommons.org/ns#"
   xmlns:rdf="http://www.w3.org/1999/02/22-rdf-syntax-ns#"
   xmlns:svg="http://www.w3.org/2000/svg"
   xmlns="http://www.w3.org/2000/svg"
   xmlns:sodipodi="http://sodipodi.sourceforge.net/DTD/sodipodi-0.dtd"
   xmlns:inkscape="http://www.inkscape.org/namespaces/inkscape"
   width="43.985271mm"
   height="11.35353mm"
   viewBox="0 0 155.85332 40.229043"
   id="svg2"
   version="1.1"
   inkscape:version="0.91 r13725"
   inkscape:export-filename="/home/daniel/ccc-pharma-client/src/assets/logo.png"
   inkscape:export-xdpi="90"
   inkscape:export-ydpi="90"
   sodipodi:docname="logo-admin.svg">
  <defs
     id="defs4" />
  <sodipodi:namedview
     id="base"
     pagecolor="#6cc067"
     bordercolor="#666666"
     borderopacity="1.0"
     inkscape:pageopacity="0"
     inkscape:pageshadow="2"
     inkscape:zoom="3.959798"
     inkscape:cx="99.96949"
     inkscape:cy="9.614424"
     inkscape:document-units="px"
     inkscape:current-layer="layer1"
     showgrid="false"
     inkscape:window-width="1366"
     inkscape:window-height="744"
     inkscape:window-x="0"
     inkscape:window-y="24"
     inkscape:window-maximized="1"
     fit-margin-top="0"
     fit-margin-left="0"
     fit-margin-right="0"
     fit-margin-bottom="0" />
  <metadata
     id="metadata7">
    <rdf:RDF>
      <cc:Work
         rdf:about="">
        <dc:format>image/svg+xml</dc:format>
        <dc:type
           rdf:resource="http://purl.org/dc/dcmitype/StillImage" />
        <dc:title />
      </cc:Work>
    </rdf:RDF>
  </metadata>
  <g
     inkscape:label="Layer 1"
     inkscape:groupmode="layer"
     id="layer1"
     transform="translate(-333.25297,-513.8965)">
    <path
       style="fill:#ffffff;fill-opacity:1;stroke:#ffffff;stroke-width:0.5;stroke-miterlimit:4;stroke-dasharray:none;stroke-opacity:1"
       d="m 348.5568,548.42939 c -3.11124,-0.59932 -5.82721,-2.08458 -8.08893,-4.42352 -1.9125,-1.9778 -3.1085,-4.09383 -3.84832,-6.80864 -0.28063,-1.0298 -0.32188,-1.50265 -0.32188,-3.68907 0,-2.75154 0.18173,-3.76039 1.05543,-5.85911 1.4468,-3.4754 4.65573,-6.68432 8.13112,-8.13113 2.09871,-0.87369 3.10758,-1.05543 5.85911,-1.05543 2.75153,0 3.76039,0.18174 5.85911,1.05543 3.47539,1.44681 6.68432,4.65573 8.13112,8.13113 0.87371,2.09872 1.05543,3.10757 1.05543,5.85911 0,2.18642 -0.0413,2.65927 -0.32189,3.68907 -0.78437,2.87835 -1.93992,4.86906 -4.05278,6.98192 -2.09566,2.09566 -4.10191,3.26634 -6.90918,4.03156 -1.42325,0.38797 -5.04217,0.50883 -6.54834,0.21868 z m 4.55954,-0.8474 c 2.77088,-0.23246 6.06426,-1.84296 8.26106,-4.03976 5.52349,-5.5235 5.52349,-14.54465 0,-20.06814 -6.16717,-6.16717 -16.51086,-5.32265 -21.56546,1.76073 -5.69336,7.97853 -1.79243,19.18753 7.63026,21.92495 1.24409,0.36145 3.31284,0.62614 4.24944,0.54374 0.26821,-0.0236 0.90932,-0.0783 1.4247,-0.12152 z m -5.04718,-7.59516 0,-3.2045 -3.2045,0 -3.2045,0 0,-3.27417 0,-3.27417 3.2045,0 3.2045,0 0,-3.2045 0,-3.20451 3.27417,0 3.27417,0 0,3.20451 0,3.2045 3.2045,0 3.20451,0 0,3.27417 0,3.27417 -3.20451,0 -3.2045,0 0,3.2045 0,3.2045 -3.27417,0 -3.27417,0 0,-3.2045 z m 5.57305,-0.97529 0,-3.2045 3.20451,0 3.20449,0 0,-2.29888 0,-2.29889 -3.20449,0 -3.20451,0 0,-3.20449 0,-3.20451 -2.29888,0 -2.29888,0 0,3.20451 0,3.20449 -3.20451,0 -3.20451,0 0,2.29889 0,2.29888 3.20451,0 3.20451,0 0,3.2045 0,3.20451 2.29888,0 2.29888,0 0,-3.20451 z"
       id="path3351"
       inkscape:connector-curvature="0"
       inkscape:export-xdpi="90"
       inkscape:export-ydpi="90" />
    <text
       xml:space="preserve"
       style="font-style:normal;font-weight:normal;font-size:17.94103813px;line-height:125%;font-family:sans-serif;letter-spacing:0px;word-spacing:0px;fill:#ffffff;fill-opacity:1;stroke:none;stroke-width:1px;stroke-linecap:butt;stroke-linejoin:miter;stroke-opacity:1"
       x="373.24875"
       y="540.21869"
       id="text3347"
       sodipodi:linespacing="125%"
       inkscape:export-xdpi="90"
       inkscape:export-ydpi="90"><tspan
         sodipodi:role="line"
         id="tspan3349"
         x="373.24875"
         y="540.21869">Admin Panel</tspan></text>
  </g>
</svg>
