<?xml version="1.0" encoding="UTF-8" standalone="no"?>
<!-- Created with Inkscape (http://www.inkscape.org/) -->

<svg
   xmlns:dc="http://purl.org/dc/elements/1.1/"
   xmlns:cc="http://creativecommons.org/ns#"
   xmlns:rdf="http://www.w3.org/1999/02/22-rdf-syntax-ns#"
   xmlns:svg="http://www.w3.org/2000/svg"
   xmlns="http://www.w3.org/2000/svg"
   xmlns:sodipodi="http://sodipodi.sourceforge.net/DTD/sodipodi-0.dtd"
   xmlns:inkscape="http://www.inkscape.org/namespaces/inkscape"
   width="53.925518mm"
   height="13.919318mm"
   viewBox="0 0 191.07467 49.320419"
   id="svg2"
   version="1.1"
   inkscape:version="0.91 r13725"
   inkscape:export-filename="/home/daniel/ccc-pharma-client/src/assets/logo.png"
   inkscape:export-xdpi="90"
   inkscape:export-ydpi="90"
   sodipodi:docname="logo.svg">
  <defs
     id="defs4" />
  <sodipodi:namedview
     id="base"
     pagecolor="#ffffff"
     bordercolor="#666666"
     borderopacity="1.0"
     inkscape:pageopacity="0.0"
     inkscape:pageshadow="2"
     inkscape:zoom="5.6"
     inkscape:cx="50.148076"
     inkscape:cy="-2.0116418"
     inkscape:document-units="px"
     inkscape:current-layer="layer1"
     showgrid="false"
     inkscape:window-width="1366"
     inkscape:window-height="744"
     inkscape:window-x="0"
     inkscape:window-y="24"
     inkscape:window-maximized="1"
     fit-margin-top="0"
     fit-margin-left="0"
     fit-margin-right="0"
     fit-margin-bottom="0" />
  <metadata
     id="metadata7">
    <rdf:RDF>
      <cc:Work
         rdf:about="">
        <dc:format>image/svg+xml</dc:format>
        <dc:type
           rdf:resource="http://purl.org/dc/dcmitype/StillImage" />
        <dc:title></dc:title>
      </cc:Work>
    </rdf:RDF>
  </metadata>
  <g
     inkscape:label="Layer 1"
     inkscape:groupmode="layer"
     id="layer1"
     transform="translate(-315.6423,-509.35081)">
    <path
       style="fill:#06b1d3;fill-opacity:1"
       d="m 335.71119,558.40829 c -5.09328,-0.98113 -9.53947,-3.41258 -13.24204,-7.24156 -3.13087,-3.23777 -5.08878,-6.70181 -6.2999,-11.14611 -0.45941,-1.68584 -0.52695,-2.45992 -0.52695,-6.03922 0,-4.50441 0.29751,-6.15597 1.7278,-9.59168 2.36851,-5.68942 7.62169,-10.9426 13.31111,-13.31111 3.4357,-1.43029 5.08727,-1.7278 9.59168,-1.7278 4.50441,0 6.15596,0.29751 9.59168,1.7278 5.68941,2.36851 10.9426,7.62169 13.3111,13.31111 1.4303,3.43571 1.7278,5.08727 1.7278,9.59168 0,3.5793 -0.0675,4.35338 -0.52695,6.03922 -1.28407,4.71201 -3.17576,7.97092 -6.63463,11.42979 -3.43072,3.43072 -6.71506,5.34717 -11.31071,6.59989 -2.32994,0.63512 -8.25432,0.83297 -10.71999,0.35799 z m 7.46422,-1.38725 c 4.53607,-0.38054 9.92751,-3.01702 13.52381,-6.61331 9.04225,-9.04226 9.04225,-23.8104 0,-32.85265 -10.096,-10.096 -27.0292,-8.71348 -35.30385,2.88241 -9.32035,13.0613 -2.93432,31.41105 12.49115,35.89237 2.03664,0.59169 5.4233,1.02501 6.95658,0.89011 0.43906,-0.0386 1.4886,-0.12814 2.33231,-0.19893 z m -8.26251,-12.4337 0,-5.24594 -5.24596,0 -5.24594,0 0,-5.36 0,-5.35999 5.24594,0 5.24596,0 0,-5.24595 0,-5.24595 5.35999,0 5.35999,0 0,5.24595 0,5.24595 5.24595,0 5.24595,0 0,5.35999 0,5.36 -5.24595,0 -5.24595,0 0,5.24594 0,5.24595 -5.35999,0 -5.35999,0 0,-5.24595 z m 9.12338,-1.59659 0,-5.24595 5.24596,0 5.24594,0 0,-3.7634 0,-3.7634 -5.24594,0 -5.24596,0 0,-5.24594 0,-5.24596 -3.76339,0 -3.7634,0 0,5.24596 0,5.24594 -5.24595,0 -5.24596,0 0,3.7634 0,3.7634 5.24596,0 5.24595,0 0,5.24595 0,5.24595 3.7634,0 3.76339,0 0,-5.24595 z"
       id="path3351"
       inkscape:connector-curvature="0"
       inkscape:export-xdpi="90"
       inkscape:export-ydpi="90" />
    <text
       xml:space="preserve"
       style="font-style:normal;font-weight:normal;font-size:21.99553871px;line-height:125%;font-family:sans-serif;letter-spacing:0px;word-spacing:0px;fill:#06b1d3;fill-opacity:1;stroke:none;stroke-width:1px;stroke-linecap:butt;stroke-linejoin:miter;stroke-opacity:1;"
       x="371.25323"
       y="542.211"
       id="text3347"
       sodipodi:linespacing="125%"
       inkscape:export-xdpi="90"
       inkscape:export-ydpi="90"><tspan
         sodipodi:role="line"
         id="tspan3349"
         x="371.25323"
         y="542.211">CCC Pharma</tspan></text>
  </g>
</svg>
